<svg xmlns="http://www.w3.org/2000/svg" viewBox="0 0 320 180" width="320" height="180">
  <defs><linearGradient id="bg" x1="0%" y1="0%" x2="100%" y2="100%"><stop offset="0%" stop-color="#0B0E0D"></stop><stop offset="100%" stop-color="#101413"></stop></linearGradient>
  <radialGradient id="halo" cx="50%" cy="50%" r="50%"><stop offset="0%" stop-color="#2BD4B4" stop-opacity="0.12"></stop><stop offset="100%" stop-color="#2BD4B4" stop-opacity="0"></stop></radialGradient></defs>
  <rect width="320" height="180" fill="url(#bg)"></rect>
<ellipse cx="160" cy="92" rx="120" ry="64" fill="url(#halo)"></ellipse><line x1="44.0" y1="56.0" x2="40.0" y2="92.0" stroke="#2BD4B4" stroke-width="0.7" opacity="0.2"></line><line x1="40.0" y1="92.0" x2="50.0" y2="128.0" stroke="#2BD4B4" stroke-width="0.7" opacity="0.2"></line><line x1="270.0" y1="52.0" x2="278.0" y2="92.0" stroke="#1FB983" stroke-width="0.7" opacity="0.2"></line><line x1="278.0" y1="92.0" x2="266.0" y2="132.0" stroke="#1FB983" stroke-width="0.7" opacity="0.2"></line><path d="M 40 92 C 120 92, 200 92, 278 92" fill="none" stroke="#2BD4B4" stroke-width="1.6" opacity="0.9"></path><path d="M 44 56 C 120 60, 200 50, 270 52" fill="none" stroke="#57C4D2" stroke-width="1.2" opacity="0.5" stroke-dasharray="4 4"></path><circle cx="160" cy="92" r="8" fill="#101413" stroke="#2BD4B4" stroke-width="1.4"></circle><circle cx="160.0" cy="92.0" r="2.4" fill="#2BD4B4" opacity="1"></circle><circle cx="160" cy="92" r="12" fill="none" stroke="#2BD4B4" stroke-width="0.7" opacity="0.4"></circle><circle cx="44" cy="56" r="9" fill="#101413" stroke="#2BD4B4" stroke-width="1.3"></circle><circle cx="44.0" cy="56.0" r="2" fill="#2BD4B4" opacity="0.9"></circle><circle cx="40" cy="92" r="9" fill="#101413" stroke="#2BD4B4" stroke-width="1.3"></circle><circle cx="40.0" cy="92.0" r="2" fill="#2BD4B4" opacity="0.9"></circle><circle cx="50" cy="128" r="9" fill="#101413" stroke="#2BD4B4" stroke-width="1.3"></circle><circle cx="50.0" cy="128.0" r="2" fill="#2BD4B4" opacity="0.9"></circle><circle cx="270" cy="52" r="9" fill="#101413" stroke="#1FB983" stroke-width="1.3"></circle><circle cx="270.0" cy="52.0" r="2" fill="#1FB983" opacity="0.9"></circle><circle cx="278" cy="92" r="9" fill="#101413" stroke="#1FB983" stroke-width="1.3"></circle><circle cx="278.0" cy="92.0" r="2" fill="#1FB983" opacity="0.9"></circle><circle cx="266" cy="132" r="9" fill="#101413" stroke="#1FB983" stroke-width="1.3"></circle><circle cx="266.0" cy="132.0" r="2" fill="#1FB983" opacity="0.9"></circle>
  <text x="14" y="168" fill="#56635B" font-family="monospace" font-size="7" letter-spacing="1.5" opacity="0.85">connecting workflows</text>
</svg>