<svg xmlns="http://www.w3.org/2000/svg" viewBox="0 0 320 180" width="320" height="180">
  <defs><linearGradient id="bg" x1="0%" y1="0%" x2="100%" y2="100%"><stop offset="0%" stop-color="#0B0E0D"></stop><stop offset="100%" stop-color="#101413"></stop></linearGradient>
  <radialGradient id="halo" cx="50%" cy="50%" r="50%"><stop offset="0%" stop-color="#2BD4B4" stop-opacity="0.10"></stop><stop offset="100%" stop-color="#2BD4B4" stop-opacity="0"></stop></radialGradient></defs>
  <rect width="320" height="180" fill="url(#bg)"></rect>
<ellipse cx="160" cy="88" rx="42" ry="24" fill="none" stroke="#2BD4B4" stroke-width="0.8" opacity="0.22"></ellipse><circle cx="122.5" cy="98.8" r="2.2" fill="#2BD4B4" opacity="0.9"></circle><circle cx="156.4" cy="64.1" r="1.5" fill="#2BD4B4" opacity="0.6"></circle><ellipse cx="160" cy="88" rx="72" ry="40" fill="none" stroke="#1FB983" stroke-width="0.8" opacity="0.22"></ellipse><circle cx="136.0" cy="50.3" r="2.2" fill="#1FB983" opacity="0.9"></circle><circle cx="213.3" cy="114.9" r="1.5" fill="#1FB983" opacity="0.6"></circle><ellipse cx="160" cy="88" rx="104" ry="58" fill="none" stroke="#57C4D2" stroke-width="0.8" opacity="0.15"></ellipse><circle cx="237.7" cy="126.6" r="2.2" fill="#57C4D2" opacity="0.9"></circle><circle cx="85.2" cy="47.7" r="1.5" fill="#57C4D2" opacity="0.6"></circle><ellipse cx="160" cy="88" rx="136" ry="76" fill="none" stroke="#E08A4C" stroke-width="0.8" opacity="0.15"></ellipse><circle cx="261.0" cy="37.1" r="2.2" fill="#E08A4C" opacity="0.9"></circle><circle cx="61.4" cy="140.3" r="1.5" fill="#E08A4C" opacity="0.6"></circle><circle cx="160" cy="88" r="9" fill="url(#halo)"></circle><circle cx="160.0" cy="88.0" r="4" fill="#2BD4B4" opacity="1"></circle><circle cx="160" cy="88" r="6.5" fill="none" stroke="#2BD4B4" stroke-width="0.8" opacity="0.5"></circle>
  <text x="14" y="168" fill="#56635B" font-family="monospace" font-size="7" letter-spacing="1.5" opacity="0.85">model orbit</text>
</svg>