<svg xmlns="http://www.w3.org/2000/svg" viewBox="0 0 320 180" width="320" height="180">
  <defs>
    <linearGradient id="bg" x1="0%" y1="0%" x2="100%" y2="100%">
      <stop offset="0%" stop-color="#0B0E0D"></stop>
      <stop offset="100%" stop-color="#101413"></stop>
    </linearGradient>
  </defs>
  <rect width="320" height="180" fill="url(#bg)"></rect>
  
  <rect x="80" y="20" width="160" height="140" rx="8" fill="none" stroke="#28302D" stroke-width="1" stroke-dasharray="4 4"></rect>
  <rect x="100" y="35" width="120" height="110" rx="6" fill="none" stroke="#28302D" stroke-width="1.5"></rect>
  <rect x="120" y="50" width="80" height="80" rx="4" fill="none" stroke="#2BD4B4" stroke-width="1.5" opacity="0.6"></rect>
  <rect x="140" y="65" width="40" height="50" rx="2" fill="#2BD4B4" opacity="0.1"></rect>
  
  <rect x="150" y="80" width="20" height="16" rx="2" fill="#2BD4B4" opacity="0.3"></rect>
  <path d="M153 80 L153 74 A7 7 0 0 1 167 74 L167 80" fill="none" stroke="#2BD4B4" stroke-width="1.5" opacity="0.6"></path>
  <circle cx="160" cy="87" r="2" fill="#2BD4B4" opacity="0.8"></circle>
  
  <line x1="0" y1="60" x2="75" y2="60" stroke="#E08A4C" stroke-width="1" opacity="0.3"></line>
  <text x="68" y="57" fill="#E08A4C" font-size="10" opacity="0.5">✕</text>
  <line x1="0" y1="100" x2="75" y2="100" stroke="#E08A4C" stroke-width="1" opacity="0.2"></line>
  <text x="68" y="97" fill="#E08A4C" font-size="10" opacity="0.4">✕</text>
  <line x1="245" y1="70" x2="320" y2="70" stroke="#E08A4C" stroke-width="1" opacity="0.3"></line>
  <text x="248" y="67" fill="#E08A4C" font-size="10" opacity="0.5">✕</text>
  <line x1="245" y1="120" x2="320" y2="120" stroke="#E08A4C" stroke-width="1" opacity="0.2"></line>
  <text x="248" y="117" fill="#E08A4C" font-size="10" opacity="0.4">✕</text>
  
  <line x1="140" y1="105" x2="140" y2="120" stroke="#2BD4B4" stroke-width="0.5" opacity="0.4"></line>
  <line x1="180" y1="105" x2="180" y2="120" stroke="#2BD4B4" stroke-width="0.5" opacity="0.4"></line>
  <circle cx="140" cy="120" r="2" fill="#2BD4B4" opacity="0.3"></circle>
  <circle cx="180" cy="120" r="2" fill="#2BD4B4" opacity="0.3"></circle>
</svg>