<svg xmlns="http://www.w3.org/2000/svg" viewBox="0 0 320 180" width="320" height="180">
  <defs><linearGradient id="bg" x1="0%" y1="0%" x2="100%" y2="100%"><stop offset="0%" stop-color="#0B0E0D"></stop><stop offset="100%" stop-color="#101413"></stop></linearGradient>
  <radialGradient id="halo" cx="50%" cy="50%" r="50%"><stop offset="0%" stop-color="#2BD4B4" stop-opacity="0.12"></stop><stop offset="100%" stop-color="#2BD4B4" stop-opacity="0"></stop></radialGradient></defs>
  <rect width="320" height="180" fill="url(#bg)"></rect>
<path d="M 30 86 C 120 84, 200 60, 308 30" fill="none" stroke="#2BD4B4" stroke-width="1.4" opacity="0.7"></path><circle cx="30.0" cy="86.0" r="1.1" fill="#57C4D2" opacity="0.5"></circle><circle cx="57.8" cy="85.4" r="1.1" fill="#57C4D2" opacity="0.54"></circle><circle cx="85.6" cy="83.8" r="1.1" fill="#57C4D2" opacity="0.5800000000000001"></circle><circle cx="113.4" cy="81.0" r="1.1" fill="#57C4D2" opacity="0.62"></circle><circle cx="141.2" cy="77.0" r="1.1" fill="#57C4D2" opacity="0.66"></circle><circle cx="169.0" cy="72.0" r="1.1" fill="#57C4D2" opacity="0.7"></circle><circle cx="196.8" cy="65.8" r="1.1" fill="#57C4D2" opacity="0.74"></circle><circle cx="224.6" cy="58.6" r="1.1" fill="#57C4D2" opacity="0.78"></circle><circle cx="252.4" cy="50.2" r="1.1" fill="#57C4D2" opacity="0.8200000000000001"></circle><circle cx="280.2" cy="40.6" r="1.1" fill="#57C4D2" opacity="0.8600000000000001"></circle><circle cx="308.0" cy="30.0" r="1.1" fill="#57C4D2" opacity="0.9"></circle><line x1="51.0" y1="112.0" x2="97.0" y2="112.0" stroke="#2BD4B4" stroke-width="1.2" opacity="0.5" stroke-dasharray="4 4"></line><circle cx="40" cy="112" r="11" fill="#101413" stroke="#2BD4B4" stroke-width="1.4"></circle><circle cx="40.0" cy="112.0" r="3" fill="#2BD4B4" opacity="1"></circle><circle cx="40" cy="112" r="15" fill="none" stroke="#2BD4B4" stroke-width="0.6" opacity="0.35"></circle><line x1="119.0" y1="112.0" x2="165.0" y2="112.0" stroke="#2BD4B4" stroke-width="1.2" opacity="0.5" stroke-dasharray="4 4"></line><circle cx="108" cy="112" r="11" fill="#101413" stroke="#2BD4B4" stroke-width="1.4"></circle><circle cx="108.0" cy="112.0" r="3" fill="#2BD4B4" opacity="1"></circle><circle cx="108" cy="112" r="15" fill="none" stroke="#2BD4B4" stroke-width="0.6" opacity="0.35"></circle><line x1="187.0" y1="112.0" x2="233.0" y2="112.0" stroke="#28302D" stroke-width="1.2" opacity="0.6"></line><circle cx="176" cy="112" r="11" fill="#101413" stroke="#57C4D2" stroke-width="1.4"></circle><circle cx="176.0" cy="112.0" r="3" fill="#57C4D2" opacity="0.5"></circle><line x1="255.0" y1="112.0" x2="289.0" y2="112.0" stroke="#28302D" stroke-width="1.2" opacity="0.6"></line><circle cx="244" cy="112" r="11" fill="#101413" stroke="#1FB983" stroke-width="1.4"></circle><circle cx="244.0" cy="112.0" r="3" fill="#1FB983" opacity="0.5"></circle><circle cx="300" cy="112" r="11" fill="#101413" stroke="#1FB983" stroke-width="1.4"></circle><circle cx="300.0" cy="112.0" r="3" fill="#1FB983" opacity="0.5"></circle>
  <text x="14" y="168" fill="#56635B" font-family="monospace" font-size="7" letter-spacing="1.5" opacity="0.85">throughput ramp</text>
</svg>